<?xml version="1.0" encoding="utf-8"?>
<!-- Generator: Adobe Illustrator 19.0.0, SVG Export Plug-In . SVG Version: 6.00 Build 0)  -->
<svg version="1.1" id="Calque_1" xmlns="http://www.w3.org/2000/svg" xmlns:xlink="http://www.w3.org/1999/xlink" x="0px" y="0px"
	 viewBox="0 0 93 73" style="enable-background:new 0 0 93 73;" xml:space="preserve">
<style type="text/css">
	.st0{fill:#FFFFFF;}
</style>
<path id="XMLID_1_" class="st0" d="M46.3,4.4c12.1,0,22,9.9,22,22s-9.9,22-22,22c-12.1,0-22-9.9-22-22S34.2,4.4,46.3,4.4 M46.3,0
	C31.7,0,19.9,11.8,19.9,26.4s11.8,26.4,26.4,26.4c14.6,0,26.4-11.8,26.4-26.4S60.9,0,46.3,0"/>
<polygon id="XMLID_4_" class="st0" points="48,24.1 49.5,18.3 51.1,12.6 45.3,14.1 39.6,15.7 42.4,18.5 32,28.9 34.7,31.6 
	45.1,21.2 "/>
<polygon id="XMLID_5_" class="st0" points="57.5,33.6 59.1,27.9 60.6,22.1 54.9,23.7 49.1,25.2 51.9,28.1 41.5,38.5 44.3,41.2 
	54.7,30.8 "/>
<path id="XMLID_6_" class="st0" d="M0.1,32.4c-0.1-1.1,0-2,0.3-2.7c0.4-0.7,0.9-1.2,1.6-1.6c0.7-0.3,1.6-0.6,2.6-0.7l5.5-0.7
	c1.1-0.1,2-0.1,2.8,0c0.8,0.2,1.5,0.5,2,1.1c0.5,0.6,0.8,1.4,1,2.6c0.1,1.1,0.1,1.9-0.2,2.6c-0.3,0.6-0.8,1.1-1.4,1.5
	c-0.6,0.3-1.4,0.6-2.3,0.7l-1.3,0.2l-0.3-2.7l1.3-0.2c0.4-0.1,0.8-0.1,1.2-0.2c0.3-0.1,0.6-0.2,0.8-0.5c0.2-0.2,0.2-0.6,0.2-1.1
	c-0.1-0.5-0.2-0.8-0.5-1c-0.2-0.2-0.6-0.3-0.9-0.3c-0.4,0-0.8,0-1.3,0.1l-6.7,0.8c-0.6,0.1-1,0.2-1.4,0.3c-0.3,0.1-0.6,0.3-0.8,0.6
	c-0.2,0.3-0.2,0.6-0.2,1c0.1,0.5,0.2,0.8,0.5,1c0.2,0.2,0.6,0.3,0.9,0.3c0.4,0,0.8,0,1.2-0.1l1.4-0.2l0.3,2.7L5.2,36
	c-0.9,0.1-1.7,0.1-2.5-0.1C2,35.7,1.4,35.4,1,34.8C0.5,34.3,0.2,33.5,0.1,32.4"/>
<path id="XMLID_7_" class="st0" d="M3.5,44.8C3,43.8,2.9,43,3,42.2c0.1-0.8,0.5-1.4,1.1-2c0.6-0.6,1.4-1,2.3-1.5l5.3-2.3
	c1-0.4,1.8-0.6,2.6-0.7c0.8,0,1.5,0.2,2.1,0.6c0.6,0.4,1.1,1.2,1.6,2.2c0.4,1,0.6,1.9,0.5,2.7c-0.1,0.7-0.4,1.4-1,2
	c-0.6,0.6-1.3,1-2.3,1.5L9.9,47c-0.9,0.4-1.8,0.6-2.6,0.7c-0.8,0-1.5-0.2-2.2-0.6C4.4,46.6,3.9,45.9,3.5,44.8 M5.4,44
	c0.2,0.4,0.4,0.7,0.7,0.8C6.3,45,6.7,45,7,44.9c0.4-0.1,0.7-0.2,1.1-0.4l6.6-2.8c0.4-0.2,0.7-0.4,1-0.6c0.3-0.2,0.5-0.5,0.6-0.7
	c0.1-0.3,0-0.6-0.1-1.1c-0.2-0.4-0.4-0.7-0.7-0.8c-0.3-0.1-0.6-0.2-0.9-0.1c-0.3,0.1-0.7,0.2-1.1,0.4l-6.6,2.8
	c-0.4,0.2-0.7,0.4-1,0.6c-0.3,0.2-0.5,0.5-0.6,0.7C5.2,43.2,5.2,43.6,5.4,44"/>
<path id="XMLID_10_" class="st0" d="M10.4,56.2c-0.7-0.9-1.1-1.7-1.2-2.5c-0.1-0.8,0.1-1.5,0.6-2.2c0.4-0.7,1-1.4,1.8-2l4.3-3.5
	c0.8-0.7,1.6-1.2,2.4-1.5c0.8-0.3,1.5-0.3,2.2-0.1c0.7,0.2,1.5,0.8,2.2,1.7c0.7,0.8,1.1,1.6,1.2,2.3c0.1,0.7,0,1.4-0.4,2
	c-0.4,0.6-0.9,1.2-1.6,1.8l-1,0.8l-1.7-2.1l1-0.9c0.3-0.3,0.6-0.5,0.9-0.8c0.2-0.3,0.4-0.5,0.4-0.8c0-0.3-0.1-0.6-0.4-1
	c-0.3-0.4-0.6-0.6-0.9-0.6c-0.3,0-0.6,0-1,0.2c-0.3,0.2-0.7,0.4-1,0.7L12.9,52c-0.4,0.4-0.8,0.7-1,1c-0.2,0.3-0.3,0.6-0.3,0.9
	c0,0.3,0.1,0.6,0.4,0.9c0.3,0.4,0.6,0.6,0.9,0.6c0.3,0,0.6-0.1,0.9-0.3c0.3-0.2,0.7-0.4,1-0.7l1.1-0.9l1.7,2.1l-1,0.8
	c-0.7,0.6-1.4,1-2.1,1.3c-0.7,0.3-1.4,0.3-2.1,0.1C11.8,57.5,11.1,57,10.4,56.2"/>
<polygon id="XMLID_11_" class="st0" points="16.6,62.4 25.3,49.6 27.7,51.1 24,56.5 26.6,58.3 30.3,52.9 32.6,54.5 23.9,67.3 
	21.5,65.7 25.5,59.9 22.9,58.2 18.9,64 "/>
<path id="XMLID_12_" class="st0" d="M32.4,71c-1-0.3-1.8-0.8-2.3-1.4c-0.5-0.6-0.8-1.3-0.8-2.1c0-0.8,0.1-1.7,0.4-2.7l1.7-5.5
	c0.3-1,0.7-1.8,1.2-2.4c0.5-0.6,1.1-1,1.8-1.2c0.7-0.2,1.6-0.1,2.7,0.2c1.1,0.3,1.9,0.8,2.4,1.4s0.8,1.3,0.8,2.1
	c0.1,0.8-0.1,1.7-0.4,2.7l-1.7,5.6c-0.3,1-0.7,1.8-1.2,2.4c-0.5,0.6-1.1,1.1-1.9,1.3C34.4,71.4,33.5,71.3,32.4,71 M33,69
	c0.5,0.1,0.8,0.1,1.1,0c0.3-0.1,0.5-0.4,0.7-0.7c0.2-0.3,0.3-0.7,0.5-1.1l2.1-6.8c0.1-0.4,0.2-0.8,0.2-1.1c0-0.4,0-0.7-0.2-0.9
	c-0.2-0.3-0.5-0.5-0.9-0.6c-0.4-0.1-0.8-0.1-1.1,0c-0.3,0.1-0.5,0.3-0.7,0.6c-0.2,0.3-0.3,0.7-0.5,1.1l-2.1,6.8
	c-0.1,0.4-0.2,0.8-0.2,1.1c0,0.4,0,0.7,0.2,0.9C32.3,68.6,32.6,68.8,33,69"/>
<polygon id="XMLID_15_" class="st0" points="41.1,72.7 41.9,57.2 44.7,57.3 44,70.8 47.8,71 47.7,73 "/>
<polygon id="XMLID_16_" class="st0" points="51,72.7 48.5,57.4 54.9,56.4 55.2,58.3 51.6,58.9 52.3,63.3 55.2,62.9 55.5,64.8 
	52.6,65.3 53.4,70.3 57.1,69.7 57.4,71.7 "/>
<path id="XMLID_17_" class="st0" d="M61.2,70.6L55,56.4l3.3-1.5c1.2-0.5,2.1-0.8,2.9-0.7c0.8,0,1.5,0.3,2,0.8
	c0.6,0.5,1.1,1.3,1.5,2.3l2.3,5.2c0.5,1,0.7,1.9,0.7,2.7c0,0.8-0.2,1.5-0.7,2.1c-0.5,0.6-1.3,1.2-2.4,1.7L61.2,70.6z M63,67.7
	l0.8-0.3c0.6-0.3,1-0.6,1.1-0.9c0.2-0.3,0.2-0.7,0.1-1.1c-0.1-0.4-0.3-0.9-0.6-1.5l-2.4-5.4c-0.3-0.6-0.5-1-0.7-1.3
	c-0.2-0.3-0.5-0.5-0.8-0.5c-0.3,0-0.8,0.1-1.4,0.3l-0.8,0.3L63,67.7z"/>
<rect id="XMLID_20_" x="71" y="62" transform="matrix(0.5759 0.8175 -0.8175 0.5759 82.4187 -32.2873)" class="st0" width="2.6" height="2.5"/>
<path id="XMLID_21_" class="st0" d="M80.1,58.6c-0.8,0.8-1.6,1.3-2.3,1.5c-0.8,0.2-1.5,0.1-2.3-0.3c-0.7-0.3-1.5-0.9-2.2-1.6l-4-3.8
	c-0.8-0.7-1.3-1.5-1.7-2.2c-0.4-0.7-0.5-1.5-0.4-2.2c0.1-0.8,0.6-1.5,1.4-2.4c0.7-0.8,1.5-1.3,2.1-1.4c0.7-0.2,1.4-0.1,2,0.1
	c0.7,0.3,1.3,0.7,2,1.4l0.9,0.9l-1.9,2l-1-0.9c-0.3-0.3-0.6-0.6-0.9-0.8c-0.3-0.2-0.6-0.3-0.9-0.3c-0.3,0-0.6,0.2-0.9,0.5
	c-0.3,0.3-0.5,0.7-0.5,1c0,0.3,0.1,0.6,0.4,0.9c0.2,0.3,0.5,0.6,0.9,1l4.9,4.7c0.4,0.4,0.8,0.7,1.1,0.9c0.3,0.2,0.6,0.3,0.9,0.2
	c0.3,0,0.6-0.2,0.9-0.5c0.3-0.3,0.5-0.7,0.5-1c0-0.3-0.2-0.6-0.4-0.9c-0.2-0.3-0.5-0.6-0.8-0.9l-1-1l1.9-2l0.9,0.9
	c0.7,0.6,1.2,1.3,1.5,2c0.3,0.7,0.4,1.4,0.3,2.1C81.3,57.1,80.8,57.8,80.1,58.6"/>
<path id="XMLID_22_" class="st0" d="M87.6,48.1c-0.5,1-1.1,1.6-1.8,2c-0.7,0.4-1.4,0.5-2.2,0.4c-0.8-0.1-1.7-0.4-2.6-0.9L75.9,47
	c-0.9-0.5-1.7-1-2.2-1.6c-0.5-0.6-0.8-1.3-0.9-2c0-0.8,0.2-1.6,0.7-2.6c0.5-1,1.1-1.7,1.8-2.1c0.6-0.4,1.4-0.5,2.2-0.4
	c0.8,0.1,1.7,0.4,2.6,0.9l5.1,2.7c0.9,0.5,1.6,1,2.2,1.6c0.5,0.6,0.8,1.3,0.9,2.1C88.3,46.3,88.1,47.1,87.6,48.1 M85.8,47.2
	c0.2-0.4,0.3-0.8,0.2-1.1c-0.1-0.3-0.3-0.6-0.5-0.8c-0.3-0.2-0.6-0.4-1-0.6l-6.3-3.3c-0.4-0.2-0.7-0.3-1.1-0.4
	c-0.3-0.1-0.6-0.1-0.9,0c-0.3,0.1-0.5,0.4-0.7,0.8c-0.2,0.4-0.3,0.7-0.2,1c0.1,0.3,0.2,0.6,0.5,0.8c0.3,0.2,0.6,0.4,1,0.6l6.3,3.3
	c0.4,0.2,0.7,0.3,1.1,0.5c0.3,0.1,0.7,0.1,1,0C85.3,47.8,85.5,47.6,85.8,47.2"/>
<polygon id="XMLID_25_" class="st0" points="91.2,39.4 76,36.6 76.4,33.7 87.4,33.3 77.2,29.3 77.6,26.5 93,28.7 92.6,30.8 82,29.3 
	92.2,33.2 92,34.9 80.9,35.3 91.6,37.3 "/>
</svg>
